<svg width="443" height="269" viewBox="0 0 443 269" fill="none" xmlns="http://www.w3.org/2000/svg">
<rect x="1" width="442" height="269" rx="30" fill="#0A66C2"/>
<path d="M28.4863 245V40.328H86.8303C98.2703 40.328 108.67 41.368 118.03 43.448C127.598 45.528 135.71 48.96 142.366 53.744C149.022 58.32 154.222 64.456 157.966 72.152C161.71 79.848 163.582 89.312 163.582 100.544C163.582 111.36 161.71 120.72 157.966 128.624C154.43 136.528 149.334 143.08 142.678 148.28C136.022 153.48 128.014 157.432 118.654 160.136C109.502 162.632 99.3103 163.88 88.0783 163.88H54.3823V245H28.4863ZM54.3823 142.664H84.9583C102.846 142.664 116.054 139.336 124.582 132.68C133.318 125.816 137.686 115.104 137.686 100.544C137.686 85.776 133.11 75.584 123.958 69.968C115.014 64.144 101.598 61.232 83.7103 61.232H54.3823V142.664ZM267.666 245V40.328H294.498L368.442 168.872L390.594 211.304H391.842C391.218 200.904 390.49 190.192 389.658 179.168C389.034 167.936 388.722 156.912 388.722 146.096V40.328H413.37V245H386.538L312.282 116.144L290.13 74.024H288.882C289.714 84.424 290.442 95.032 291.066 105.848C291.898 116.456 292.314 127.168 292.314 137.984V245H267.666Z" fill="white"/>
<rect y="141" width="442" height="26" fill="#0A66C2"/>
<path d="M214.504 168.194V191L261 167.898V145.095L214.504 168.194Z" fill="#3FAAD7"/>
<path d="M235.318 124.147L258.26 112.744L214.504 91V113.806L235.318 124.147Z" fill="#0064AF"/>
<path d="M196.434 130.957V153.77L214.503 162.746V139.943L196.434 130.957Z" fill="#A1D9DF"/>
<path d="M261 116.832L214.504 139.943V162.746L261 139.644V116.832Z" fill="#3FAAD7"/>
<path d="M170.769 112.731L193.573 124.2L214.503 113.806V91L170.769 112.731Z" fill="#3FAAD7"/>
<path d="M190.949 156.495V128.221L168 116.821V167.898L214.503 190.999V168.193L190.949 156.495Z" fill="#A1D9DF"/>
</svg>
